<svg xmlns="http://www.w3.org/2000/svg" xml:space="preserve" width="800" height="800" fill="#fff" viewBox="0 0 179.006 179.006"><path d="M69.246 97.982a5.9 5.9 0 0 1-5.901-5.907c0-3.27 5.901-13.61 5.901-13.61s5.901 10.347 5.901 13.61a5.9 5.9 0 0 1-5.901 5.907M64.8 73.894h-6.766v36.076H46.297v5.549h6.826v5.102H0v-5.102h6.832V58.392h39.471v46.47h6.623V71.346l.03-2.56H67.3l3.962 5.09-4.028 3.139zm-27.25-6.659H15.574v16.403H37.55zm72.783 11.617c.668.871 1.283 1.82 1.784 2.846a16.2 16.2 0 0 1 1.122 3.168l36.464-21.32zm-17.089.114c-5.812 3.031-8.073 10.209-5.036 16.027s10.215 8.079 16.021 5.048c5.824-3.037 8.085-10.203 5.054-16.033-3.031-5.818-10.209-8.074-16.039-5.042m11.618-63.028h-9.314v24.464h9.314zm-9.309 147.131h9.314v-24.47h-9.314zm58.989-78.226v9.32h24.464v-9.32zm-23.611-37.436 3.294 3.294 17.298-17.298-3.3-3.294zm0 84.192 17.298 17.298 3.294-3.294-17.292-17.298zm-56.888 20.747H86v-4.212H74.043v-5.197h12.894v-4.332H68.929v24.464h18.575v-4.35H74.043zm.567-111.944V30.055h10.716v-4.206H74.61v-5.567h12.304v-4.344H69.508v24.464h5.102" style="fill:#fff"/></svg>