<svg xmlns="http://www.w3.org/2000/svg" width="800" height="800" fill="#fff" stroke="#fff" stroke-width=".001" viewBox="0 0 50 50"><path d="M37 25.955a11.022 11.022 0 1 0 11 11.023 11.024 11.024 0 0 0-11-11.023Zm4.707 14.322a1 1 0 0 1-1.414 1.417L37 38.394l-3.293 3.3a1.016 1.016 0 0 1-1.414 0 1.003 1.003 0 0 1 0-1.417l3.293-3.3-3.293-3.299a1 1 0 0 1 1.414-1.417l3.293 3.3 3.293-3.3a1 1 0 0 1 1.414 1.417l-3.293 3.3ZM42 15.935a4 4 0 0 1 .05-.49 20 20 0 0 0 3.27-.904 1.98 1.98 0 0 1 1.822.233A2 2 0 0 1 48 16.42v2.967a3.95 3.95 0 0 1-2 .557 4.01 4.01 0 0 1-4-4.008Zm-38.012-2.49c.54-.2 1.08-.37 1.62-.523A3.993 3.993 0 0 1 3 19.943a4 4 0 0 1-1-.142v-3.52a3.04 3.04 0 0 1 1.988-2.836ZM8 43.992a4 4 0 0 1-.05.498 20 20 0 0 0-3.268.896 1.99 1.99 0 0 1-1.826-.235A2 2 0 0 1 2 43.508v-2.967a3.95 3.95 0 0 1 2-.557 4.01 4.01 0 0 1 4 4.008Zm17-22.045a8.014 8.014 0 0 0-.947 15.971c-.023-.312-.053-.622-.053-.94a13.03 13.03 0 0 1 7.445-11.76A8.03 8.03 0 0 0 25 21.948Zm0 4.008a4.01 4.01 0 0 0-4 4.008 1 1 0 1 1-2 0 6.013 6.013 0 0 1 6-6.012 1.002 1.002 0 0 1 0 2.004ZM8 5.345v-1.23A2.02 2.02 0 0 1 9.806 2.11c5.19-.482 10.388.691 15.413 1.824C30.028 5.02 35 6.14 39.815 5.736A2.016 2.016 0 0 1 42 7.726v.67c-9.82 1.915-19.636-3.517-29.698-3.383A27.5 27.5 0 0 0 8 5.345Zm-3 5.528V9.624a2 2 0 0 1 1.526-1.955c6.309-1.515 12.604-.097 18.693 1.276 5.995 1.352 11.658 2.629 17.38 1.377 1.322-.323 3.662 1.815 2.401 2.237a20.7 20.7 0 0 1-3.904 1.061C30.004 15.032 18.82 8.268 7.498 10.43Zm41 11.074a6.013 6.013 0 0 1-6-6.012c0-.067.008-.133.01-.2-4.84.457-9.712-.634-14.79-1.78-5.674-1.278-11.505-2.59-17.374-1.55A5.98 5.98 0 0 1 9 15.934a6.013 6.013 0 0 1-6 6.012 6 6 0 0 1-1-.09V38.33a6 6 0 0 1 2-.35 6.013 6.013 0 0 1 6 6.012c0 .072-.008.141-.01.212 4.82-.44 9.673.667 14.73 1.828 1.276.292 2.566.586 3.865.856a13.06 13.06 0 0 1-4.238-6.937 10.014 10.014 0 1 1 9.016-15.471A12.914 12.914 0 0 1 48 30.067v-8.47a6 6 0 0 1-2 .35Zm-35 9.019H9a1.002 1.002 0 0 1 0-2.005h2a1.002 1.002 0 0 1 0 2.005Z"/></svg>