<svg xmlns="http://www.w3.org/2000/svg" xml:space="preserve" width="800" height="800" fill="#fff" stroke="#fff" stroke-width="14.229" viewBox="-14.72 -14.72 520.11 520.11"><path d="M245.333 0C110.059 0 0 110.059 0 245.333s110.059 245.333 245.333 245.333 245.333-110.059 245.333-245.333S380.608 0 245.333 0zm0 469.333c-123.52 0-224-100.48-224-224 0-57.92 22.293-110.613 58.496-150.421L176.917 192h-59.584c-5.888 0-10.667 4.779-10.667 10.667s4.779 10.667 10.667 10.667h32V352c0 5.888 4.779 10.667 10.667 10.667s10.667-4.779 10.667-10.667v-61.12c14.763 3.264 39.488 7.787 64 7.787 21.184 0 34.219-2.859 42.091-6.827l21.909 21.909V352c0 5.888 4.779 10.667 10.667 10.667S320 357.888 320 352v-16.917l75.755 75.755c-39.808 36.202-92.502 58.495-150.422 58.495zm165.504-73.578-93.952-93.952L94.933 79.851c39.808-36.203 92.501-58.496 150.421-58.496 123.499-.021 223.979 100.459 223.979 223.979 0 57.919-22.293 110.613-58.496 150.421z"/><path d="m389.483 172.181-48.149-28.885v-25.963c0-4.949-3.413-9.259-8.213-10.389-4.779-1.152-9.771 1.173-11.989 5.611l-30.869 61.76c-5.227 10.453-15.851 17.173-27.733 17.515a10.7 10.7 0 0 0-9.6 6.72 10.66 10.66 0 0 0 2.368 11.477l47.979 48a10.67 10.67 0 0 0 7.552 3.115c1.003 0 2.005-.128 2.987-.427a10.66 10.66 0 0 0 7.424-7.957c1.173-5.333 2.816-9.28 5.163-12.416l18.859-25.131 24.704 8.235c5.632 1.899 11.627-1.152 13.483-6.741l10.667-32a10.68 10.68 0 0 0-4.633-12.524z"/></svg>