<svg xmlns="http://www.w3.org/2000/svg" xml:space="preserve" width="800" height="800" fill="#fff" viewBox="0 0 313.725 313.725"><path d="M235.469 68.574c-4.679 5.328-6.204 13.161-2.186 19.269 3.079 4.679 8.408 7.246 10.905 12.398 3.438 7.099-.361 16.396-8.444 17.923-1.551.294-.145-1.525.14-2.021 1-1.741 1.881-3.605 2.271-5.587.76-3.855-1.115-8.062-3.232-11.215-.819-1.221-1.753-2.328-2.674-3.473-2.601-3.256-4.655-7.004-5.12-11.202-.447-4.053.669-8.114 2.933-11.486a21.3 21.3 0 0 1 3.327-3.866c.47-.43.955-.848 1.47-1.223.355-.258 1.005.055.61.483M208.689 113.292c1.737 3.672 3.355 7.585 3.49 11.699.139 4.244-1.389 8.376-3.278 12.109-.835 1.649-1.764 3.244-2.729 4.82-.538.879-.402 1.746.84 1.564 3.266-.475 6.501-2.09 9.134-4.025a23.54 23.54 0 0 0 9.557-20.242c-.447-8.277-5.15-14.85-10.929-20.399-2.333-2.241-4.917-4.198-7.19-6.507-5.913-6.001-9.999-13.627-9.448-22.244.462-7.244 3.879-14.682 8.623-20.135.418-.467.045-1.237-.589-1.186-.277.022-.522.248-.731.405a36 36 0 0 0-2.602 2.174 40.2 40.2 0 0 0-5.223 5.805c-3.303 4.471-5.636 9.686-6.455 15.205-1.655 11.151 3.277 21.555 10.257 29.941 2.854 3.431 5.348 6.95 7.273 11.016"/><path d="M156.862 0C70.368 0 0 70.368 0 156.862s70.368 156.862 156.862 156.862 156.862-70.368 156.862-156.862S243.356 0 156.862 0M290 156.862c0 32.443-11.671 62.209-31.027 85.333l-51.03-51.028h10.869a7.087 7.087 0 0 0 7.086-7.086v-23.615a7.087 7.087 0 0 0-7.086-7.086H196.19v26.034l-10.271-10.27V153.38h-15.764L71.526 54.755c23.124-19.358 52.891-31.03 85.336-31.03C230.274 23.725 290 83.45 290 156.862m-266.275 0c0-32.443 11.671-62.209 31.026-85.332l81.851 81.85h-64.74a7.087 7.087 0 0 0-7.086 7.086v23.615a7.087 7.087 0 0 0 7.086 7.086h102.529l67.806 67.804C219.073 278.328 189.308 290 156.862 290 83.45 290 23.725 230.274 23.725 156.862"/></svg>