<svg xmlns="http://www.w3.org/2000/svg" xml:space="preserve" width="800" height="800" fill="#fff" viewBox="0 0 100 100"><path d="M50 19C25.1 19 4.9 38.5 4 63.4 4 64.8 5.2 66 6.6 66c1.2 0 2.2-.8 2.6-2 4-14.2 17-24 31.8-24 6.9 0 13.5 2.1 19.1 6.1l-17.6 17c-.5 0-1-.1-1.5-.1-5 0-9 4-9 9s4 9 9 9 9-4 9-9c0-.5-.1-1-.1-1.5l14-21.3c4.2 4.1 7.3 9.2 8.9 14.8.3 1.2 1.4 2 2.6 2h18c.7 0 1.4-.3 1.9-.8s.8-1.2.7-1.9C95 38.5 74.8 19 50 19m17.9 5.8L55.4 41.1c-4.2-1.9-8.7-3-13.4-3.1V21.7c2.6-.5 5.2-.7 8-.7 6.4 0 12.4 1.4 17.9 3.8m-40 15.8-4.8-10.5c4.9-3.8 10.6-6.5 16.9-7.9V38c-4.2.1-8.3 1-12.1 2.6M7.3 63.5c-.1.3-.4.5-.7.5s-.6-.3-.6-.6c.2-6.1 1.7-11.9 4.1-17.1l4.9 3.3c-3.5 3.9-6.2 8.6-7.7 13.9m9.1-15.4L11 44.5c2.6-5 6.2-9.5 10.5-13.1l4.5 10c-3.5 1.6-6.8 3.9-9.6 6.7M41 79c-3.9 0-7-3.1-7-7s3.1-7 7-7 7 3.1 7 7-3.1 7-7 7m3.7-15.2 19.6-18.9-1.4 2.1c-.1.1-.1.2-.1.2L49.1 68.1c-.9-1.9-2.5-3.5-4.4-4.3m20.2-16.3 5.9-9c.3-.4.2-1-.2-1.3s-1-.3-1.3 0l-7.7 7.4c-1.4-1-2.8-1.9-4.3-2.7l12.5-16.3c7.1 3.6 13.1 9 17.4 15.6L67.7 50l-.1.1c-.9-.9-1.8-1.7-2.7-2.6m28.9 16.3c-.1.1-.3.2-.5.2h-18c-.3 0-.5-.2-.6-.5-1.2-4.3-3.2-8.2-5.9-11.7L88.2 43c3.4 6 5.5 12.9 5.8 20.3-.1.3-.2.4-.2.5"/></svg>